<?xml version="1.0" standalone="no"?>
<!DOCTYPE svg PUBLIC "-//W3C//DTD SVG 20010904//EN"
 "http://www.w3.org/TR/2001/REC-SVG-20010904/DTD/svg10.dtd">
<svg version="1.0" xmlns="http://www.w3.org/2000/svg"
 width="492.000000pt" height="492.000000pt" viewBox="0 0 492.000000 492.000000"
 preserveAspectRatio="xMidYMid meet">
<metadata>
Created by potrace 1.11, written by Peter Selinger 2001-2013
</metadata>
<g transform="translate(0.000000,492.000000) scale(0.100000,-0.100000)"
fill="#000000" stroke="none">
<path d="M2295 4569 c-356 -21 -707 -113 -1020 -268 -617 -305 -1035 -802
-1189 -1416 -49 -194 -62 -493 -31 -695 147 -959 980 -1694 2080 -1835 173
-22 477 -22 650 0 311 40 598 124 860 254 617 305 1035 802 1189 1416 62 247
62 613 1 858 -156 616 -572 1112 -1190 1418 -408 201 -883 296 -1350 268z
m500 -94 c811 -107 1497 -572 1815 -1230 351 -725 197 -1559 -397 -2148 -193
-191 -366 -314 -618 -438 -357 -176 -725 -259 -1145 -259 -280 0 -515 33 -757
106 -846 255 -1451 903 -1568 1679 -20 131 -19 388 1 522 87 592 458 1114
1023 1445 320 187 691 303 1081 337 139 13 416 6 565 -14z"/>
<path d="M2140 4436 c-551 -70 -1031 -293 -1394 -645 -184 -180 -311 -351
-411 -556 -356 -729 -188 -1571 429 -2152 634 -597 1624 -800 2497 -513 372
122 687 316 945 581 274 283 451 619 520 986 22 122 30 380 14 511 -103 886
-854 1598 -1871 1773 -159 27 -565 35 -729 15z m244 -168 c3 -13 6 -40 6 -60
l0 -38 50 0 50 0 0 60 0 60 30 0 30 0 2 -115 c1 -63 2 -132 3 -152 0 -34 -3
-38 -27 -41 -27 -3 -28 -2 -28 47 0 75 -5 81 -61 81 l-49 0 0 -65 0 -65 -30 0
-30 0 0 155 0 155 24 0 c16 0 26 -7 30 -22z m-174 -18 c0 -25 -4 -30 -25 -30
-30 0 -30 -1 -10 -130 20 -131 20 -130 -14 -130 -26 0 -29 3 -35 48 -3 26 -11
82 -17 125 l-11 78 -29 -6 c-27 -6 -29 -4 -29 23 0 29 2 31 63 40 106 16 107
16 107 -18z m620 2 c48 -23 66 -63 51 -113 -8 -28 -21 -44 -44 -55 -18 -9 -33
-18 -35 -19 -2 -2 8 -26 22 -54 14 -28 26 -53 26 -56 0 -3 -13 -5 -30 -5 -26
0 -33 7 -62 63 l-32 62 -9 -52 c-8 -50 -10 -53 -39 -53 -29 0 -30 2 -24 33 3
17 13 87 22 155 l17 123 51 -6 c28 -4 67 -14 86 -23z m370 -83 c106 -60 105
-219 -2 -279 -110 -62 -249 32 -235 158 13 114 136 177 237 121z m-1475 -19
c9 -27 2 -34 -45 -50 -37 -12 -41 -16 -35 -39 10 -40 19 -44 60 -27 48 21 50
20 63 -8 10 -23 8 -26 -36 -42 -26 -10 -48 -18 -50 -19 -2 -2 16 -49 24 -63 1
-1 24 6 52 17 52 21 62 17 62 -24 0 -16 -138 -71 -150 -59 -9 10 -112 276
-108 279 10 7 135 54 145 55 6 0 14 -9 18 -20z m-235 -248 c21 -149 22 -154 4
-167 -11 -7 -24 -10 -29 -7 -29 19 -245 197 -245 202 0 4 11 12 24 19 23 13
29 9 112 -63 48 -42 88 -75 90 -73 2 2 -5 52 -16 112 -11 60 -20 112 -20 115
0 10 44 29 51 21 4 -3 17 -75 29 -159z m1999 141 c3 -2 -20 -50 -50 -108 -59
-114 -60 -140 -3 -140 26 0 34 9 81 95 29 52 58 96 65 98 8 1 21 -3 30 -10 15
-12 11 -22 -37 -107 -62 -111 -92 -141 -142 -141 -27 0 -43 8 -70 35 -31 31
-35 40 -30 74 2 21 29 82 58 134 49 87 55 95 74 85 11 -6 22 -12 24 -15z
m-863 -174 c643 -62 1188 -452 1384 -988 95 -259 100 -564 14 -827 -112 -345
-392 -660 -746 -842 -178 -91 -400 -159 -599 -182 -155 -18 -444 -9 -583 19
-503 101 -926 403 -1134 807 -100 196 -143 371 -144 589 -1 386 159 725 475
1012 333 301 847 460 1333 412z m-1397 -129 l91 -119 -25 -17 c-14 -9 -27 -15
-29 -13 -1 2 -38 52 -82 110 -44 58 -84 111 -88 118 -9 14 10 41 29 41 7 0 53
-54 104 -120z m2594 86 c63 -26 115 -116 100 -174 l-6 -23 -28 27 c-16 15 -29
36 -29 47 0 10 -13 32 -29 48 -63 63 -171 20 -171 -68 0 -21 7 -49 16 -62 21
-30 79 -55 100 -43 13 7 8 16 -31 47 -46 38 -46 38 -26 58 20 20 20 20 91 -38
39 -32 73 -61 75 -65 9 -15 -54 -58 -93 -65 -131 -22 -241 139 -169 246 48 72
125 97 200 65z m-2783 -133 c0 -16 -45 -53 -65 -53 -54 0 -104 -75 -84 -127
19 -51 48 -73 97 -73 56 0 102 41 102 91 l0 33 -45 -44 c-44 -43 -45 -43 -65
-25 -21 19 -21 19 52 92 73 74 73 74 90 52 45 -55 41 -140 -9 -199 -35 -42
-74 -60 -130 -60 -170 0 -212 245 -53 309 29 11 110 14 110 4z m3053 -120 c18
-21 18 -22 -32 -59 l-50 -37 30 -39 c17 -21 35 -38 41 -38 6 0 30 16 53 35
l43 35 17 -26 c9 -14 15 -27 13 -28 -2 -2 -56 -44 -121 -96 -65 -51 -119 -91
-120 -89 -2 2 -9 12 -17 23 -13 17 -10 22 35 61 l49 43 -33 41 -33 41 -51 -40
-51 -41 -17 23 c-10 13 -15 26 -11 30 13 13 236 188 237 185 0 -1 8 -12 18
-24z m-3557 -1037 c40 -40 46 -78 22 -139 -14 -35 -55 -57 -109 -57 -33 0 -47
6 -75 34 -29 29 -34 41 -34 81 0 40 5 52 34 81 29 29 41 34 81 34 40 0 52 -5
81 -34z m3990 0 c29 -29 34 -41 34 -81 0 -40 -5 -52 -34 -81 -29 -29 -41 -34
-81 -34 -40 0 -52 5 -81 34 -29 29 -34 41 -34 81 0 40 5 52 34 81 29 29 41 34
81 34 40 0 52 -5 81 -34z m-1176 -1465 c14 -28 15 -26 -40 -50 l-50 -22 16
-30 c11 -23 20 -29 32 -24 69 29 73 30 82 15 17 -26 11 -36 -35 -58 l-46 -22
16 -29 15 -30 47 21 c45 20 47 20 60 2 20 -28 17 -33 -44 -59 -102 -45 -91
-52 -155 95 -32 72 -58 136 -58 141 0 10 114 67 137 68 7 1 17 -8 23 -18z
m-1706 -13 c29 -26 41 -66 27 -87 -13 -21 -61 1 -61 28 0 25 -26 34 -45 15 -8
-9 -15 -17 -15 -19 0 -2 16 -22 35 -45 44 -53 48 -103 10 -144 -29 -31 -91
-36 -130 -10 -29 19 -54 89 -38 105 16 16 53 1 53 -21 0 -28 46 -56 65 -40 21
18 19 44 -9 77 -53 64 -57 89 -20 132 33 39 89 43 128 9z m236 -92 c54 -18 64
-25 62 -41 -6 -33 -16 -36 -62 -20 -47 17 -55 14 -65 -26 -6 -24 -3 -27 39
-38 46 -11 57 -28 38 -59 -7 -10 -17 -9 -52 3 -47 17 -58 12 -62 -24 -3 -21 4
-27 45 -40 44 -14 48 -17 42 -40 -4 -14 -8 -28 -10 -30 -5 -4 -138 39 -148 49
-7 6 41 181 74 266 10 29 15 29 99 0z m1221 -26 l33 -24 -29 -12 c-19 -8 -38
-9 -53 -3 -73 28 -142 -16 -142 -91 0 -90 108 -136 168 -72 15 16 39 32 55 36
22 5 27 3 27 -13 0 -11 -12 -34 -27 -52 -53 -62 -137 -76 -208 -34 -142 83
-69 306 96 292 28 -2 60 -13 80 -27z m-924 -45 c61 -26 74 -106 24 -156 -16
-16 -37 -29 -45 -29 -13 0 -11 -11 13 -59 17 -32 28 -61 26 -63 -3 -3 -18 -3
-34 0 -23 3 -33 14 -57 64 -30 63 -42 60 -43 -9 -1 -30 -4 -33 -31 -33 -37 0
-37 7 -10 175 11 66 20 124 20 128 0 12 96 -2 137 -18z m547 -7 c9 -42 37
-280 33 -284 -2 -2 -14 -5 -27 -6 -27 -3 -30 6 -54 195 -12 97 -12 99 8 107
32 13 35 12 40 -12z m-367 -10 c5 -7 22 -49 38 -93 50 -145 42 -143 83 -25 21
58 41 111 45 118 9 13 57 17 57 4 0 -11 -96 -266 -110 -291 -5 -10 -19 -18
-31 -17 -18 1 -31 24 -80 150 -33 82 -59 153 -59 157 0 14 46 10 57 -3z"/>
<path d="M2745 4207 c-11 -37 -10 -77 3 -82 51 -19 99 22 74 63 -12 19 -72 34
-77 19z"/>
<path d="M3055 4106 c-67 -67 -27 -176 65 -176 33 0 48 6 71 29 64 65 20 171
-71 171 -30 0 -47 -6 -65 -24z"/>
<path d="M2184 3815 c-369 -56 -680 -210 -929 -460 -215 -215 -335 -441 -381
-720 -20 -126 -14 -330 15 -458 107 -467 488 -859 1001 -1027 622 -205 1317
-52 1756 385 262 261 394 566 394 909 0 355 -136 664 -408 928 -222 215 -499
358 -827 428 -130 28 -481 37 -621 15z m166 -375 c0 -216 1 -230 18 -230 10 0
29 -11 42 -25 15 -15 33 -25 46 -23 11 1 37 -10 57 -25 24 -18 48 -27 74 -28
21 0 47 -4 58 -9 13 -5 26 -2 38 8 16 14 21 12 60 -26 39 -39 44 -41 59 -26
15 15 18 14 47 -7 26 -19 34 -21 40 -10 7 11 12 9 21 -9 l13 -24 20 28 c16 23
24 26 51 21 17 -3 41 -11 53 -17 18 -9 34 -6 84 17 46 20 71 26 100 22 22 -3
42 -1 45 4 10 18 40 8 99 -31 43 -28 71 -40 97 -40 l36 0 6 -82 c3 -46 8 -128
12 -182 6 -95 8 -102 44 -150 51 -69 90 -149 90 -185 0 -17 -7 -49 -16 -71
-10 -26 -15 -57 -12 -84 3 -25 0 -57 -8 -76 -8 -18 -14 -43 -14 -56 0 -13 -5
-24 -11 -24 -6 0 -41 -18 -79 -40 -38 -22 -71 -40 -74 -40 -3 0 -6 20 -8 44
-3 41 -4 43 -26 35 l-23 -9 21 -40 20 -40 -62 -60 c-35 -32 -94 -76 -132 -96
-58 -31 -72 -35 -92 -25 -35 16 -57 5 -42 -22 6 -12 7 -22 2 -24 -5 -2 -22
-12 -39 -23 -75 -50 -90 -66 -92 -94 -3 -37 -7 -40 -32 -26 -25 13 -27 3 -5
-21 14 -15 14 -20 0 -46 -8 -16 -22 -35 -30 -42 -9 -7 -13 -18 -9 -25 4 -6 6
-36 5 -67 -2 -41 4 -74 23 -125 14 -38 30 -73 35 -78 17 -17 11 -33 -19 -46
-24 -9 -33 -9 -53 3 -12 8 -49 18 -82 22 -82 10 -143 29 -198 64 -71 45 -102
95 -123 198 -17 84 -20 91 -58 117 -54 39 -122 133 -173 242 -38 79 -54 100
-124 163 l-80 73 -98 5 -99 6 -33 -54 c-18 -30 -46 -71 -63 -92 -26 -34 -34
-38 -61 -33 -57 11 -178 78 -226 125 -43 42 -49 54 -69 135 -28 113 -41 138
-94 175 -77 54 -257 253 -257 285 0 3 162 6 360 6 l360 0 0 33 c-1 92 22 984
26 995 2 9 67 12 279 12 l275 0 0 -230z"/>
<path d="M2085 814 c-7 -40 3 -54 41 -54 26 0 44 18 44 45 0 29 -19 45 -51 45
-23 0 -28 -5 -34 -36z"/>
</g>
</svg>
